<?xml version="1.0" encoding="UTF-8"?>
<svg width="13px" height="22px" viewBox="0 0 13 22" version="1.1" xmlns="http://www.w3.org/2000/svg" xmlns:xlink="http://www.w3.org/1999/xlink">
    <!-- Generator: Sketch 46.2 (44496) - http://www.bohemiancoding.com/sketch -->
    <title>directionswalk</title>
    <desc>Created with Sketch.</desc>
    <defs></defs>
    <g id="property-page-new" stroke="none" stroke-width="1" fill="none" fill-rule="evenodd">
        <g id="Property-Page-Desktop-HD-Copy-2" transform="translate(-475.000000, -3280.000000)" fill="#00202C">
            <g id="locality" transform="translate(84.000000, 2763.000000)">
                <g id="map" transform="translate(17.000000, 179.000000)">
                    <g id="directionswalk" transform="translate(374.000000, 338.000000)">
                        <path d="M8,3.8 C9,3.8 9.8,3 9.8,2 C9.8,1 9,0.2 8,0.2 C7,0.2 6.2,1 6.2,2 C6.2,3 7,3.8 8,3.8 L8,3.8 Z M8.1,10 L13,10 L13,8.2 L9.4,8.2 L7.4,4.9 C7.1,4.4 6.5,4 5.9,4 C5.7,4 5.6,4 5.4,4.1 L0,5.8 L0,11 L1.8,11 L1.8,7.3 L3.9,6.6 L0,22 L1.8,22 L4.7,13.9 L7,17 L7,22 L8.8,22 L8.8,15.6 L6.3,11.1 L7,8.2 L8.1,10 L8.1,10 Z" id="Shape"></path>
                    </g>
                </g>
            </g>
        </g>
    </g>
</svg>